<?xml version="1.0" encoding="utf-8"?>
<!-- Generator: Adobe Illustrator 17.1.0, SVG Export Plug-In . SVG Version: 6.00 Build 0)  -->
<!DOCTYPE svg PUBLIC "-//W3C//DTD SVG 1.1//EN" "http://www.w3.org/Graphics/SVG/1.1/DTD/svg11.dtd">
<svg version="1.1" id="Layer_1" xmlns="http://www.w3.org/2000/svg" xmlns:xlink="http://www.w3.org/1999/xlink" x="0px" y="0px"
	 viewBox="0 0 100 200" enable-background="new 0 0 100 200" xml:space="preserve">
<rect class="point" x="11.8" y="10.1" width="1" height="1"/>
<rect class="point" x="11.8" y="28.1" width="1" height="1"/>
<rect class="point" x="11.8" y="46.1" width="1" height="1"/>
<rect class="point" x="11.8" y="64.1" width="1" height="1"/>
<rect class="point" x="11.8" y="82.2" width="1" height="1"/>
<rect class="point" x="11.8" y="100.2" width="1" height="1"/>
<rect class="point" x="11.8" y="118.2" width="1" height="1"/>
<rect class="point" x="11.8" y="136.2" width="1" height="1"/>
<rect class="point" x="11.8" y="154.2" width="1" height="1"/>
<rect class="point" x="11.8" y="172.2" width="1" height="1"/>
<rect class="point" x="30.6" y="10.1" width="1" height="1"/>
<rect class="point" x="30.6" y="28.1" width="1" height="1"/>
<rect class="point" x="30.6" y="46.1" width="1" height="1"/>
<rect class="point" x="30.6" y="64.1" width="1" height="1"/>
<rect class="point" x="30.6" y="82.2" width="1" height="1"/>
<rect class="point" x="30.6" y="100.2" width="1" height="1"/>
<rect class="point" x="30.6" y="118.2" width="1" height="1"/>
<rect class="point" x="30.6" y="136.2" width="1" height="1"/>
<rect class="point" x="30.6" y="154.2" width="1" height="1"/>
<rect class="point" x="30.6" y="172.2" width="1" height="1"/>
<rect class="point" x="49.5" y="10.1" width="1" height="1"/>
<rect class="point" x="49.5" y="28.1" width="1" height="1"/>
<rect class="point" x="49.5" y="46.1" width="1" height="1"/>
<rect class="point" x="49.5" y="64.1" width="1" height="1"/>
<rect class="point" x="49.5" y="82.2" width="1" height="1"/>
<rect class="point" x="49.5" y="100.2" width="1" height="1"/>
<rect class="point" x="49.5" y="118.2" width="1" height="1"/>
<rect class="point" x="49.5" y="136.2" width="1" height="1"/>
<rect class="point" x="49.5" y="154.2" width="1" height="1"/>
<rect class="point" x="49.5" y="172.2" width="1" height="1"/>
<rect class="point" x="68.4" y="10.1" width="1" height="1"/>
<rect class="point" x="68.4" y="28.1" width="1" height="1"/>
<rect class="point" x="68.4" y="46.1" width="1" height="1"/>
<rect class="point" x="68.4" y="64.1" width="1" height="1"/>
<rect class="point" x="68.4" y="82.2" width="1" height="1"/>
<rect class="point" x="68.4" y="100.2" width="1" height="1"/>
<rect class="point" x="68.4" y="118.2" width="1" height="1"/>
<rect class="point" x="68.4" y="136.2" width="1" height="1"/>
<rect class="point" x="68.4" y="154.2" width="1" height="1"/>
<rect class="point" x="68.4" y="172.2" width="1" height="1"/>
<rect class="point" x="87.2" y="10.1" width="1" height="1"/>
<rect class="point" x="87.2" y="28.1" width="1" height="1"/>
<rect class="point" x="87.2" y="46.1" width="1" height="1"/>
<rect class="point" x="87.2" y="64.1" width="1" height="1"/>
<rect class="point" x="87.2" y="82.2" width="1" height="1"/>
<rect class="point" x="87.2" y="100.2" width="1" height="1"/>
<rect class="point" x="87.2" y="118.2" width="1" height="1"/>
<rect class="point" x="87.2" y="136.2" width="1" height="1"/>
<rect class="point" x="87.2" y="154.2" width="1" height="1"/>
<rect class="point" x="87.2" y="172.2" width="1" height="1"/>
<rect class="point" x="11.8" y="188.9" width="1" height="1"/>
<rect class="point" x="30.6" y="188.9" width="1" height="1"/>
<rect class="point" x="49.5" y="188.9" width="1" height="1"/>
<rect class="point" x="68.4" y="188.9" width="1" height="1"/>
<rect class="point" x="87.2" y="188.9" width="1" height="1"/>
</svg>
