<?xml version="1.0" encoding="utf-8"?>
<!-- Generator: Adobe Illustrator 17.1.0, SVG Export Plug-In . SVG Version: 6.00 Build 0)  -->
<!DOCTYPE svg PUBLIC "-//W3C//DTD SVG 1.1//EN" "http://www.w3.org/Graphics/SVG/1.1/DTD/svg11.dtd">
<svg version="1.1" id="Layer_1" xmlns="http://www.w3.org/2000/svg" xmlns:xlink="http://www.w3.org/1999/xlink" x="0px" y="0px"
	 viewBox="0 0 960 560" enable-background="new 0 0 960 560" xml:space="preserve">
<rect x="-0.5" y="0.5" fill="none" stroke="#FFFFFF" stroke-miterlimit="10" width="288" height="185"/>
<g>
	<rect x="17" y="14" width="1" height="1"/>
	<rect x="244.7" y="13" width="1" height="1"/>
	<rect x="219.4" y="13" width="1" height="1"/>
	<rect x="194.1" y="13" width="1" height="1"/>
	<rect x="168.8" y="13" width="1" height="1"/>
	<rect x="143.5" y="13" width="1" height="1"/>
	<rect x="118.2" y="13.6" width="1" height="1"/>
	<rect x="92.9" y="13.7" width="1" height="1"/>
	<rect x="67.6" y="13.8" width="1" height="1"/>
	<rect x="42.3" y="13.9" width="1" height="1"/>
	<rect x="270" y="13" width="1" height="1"/>
</g>
<g>
	<rect x="17" y="33" width="1" height="1"/>
	<rect x="244.7" y="32" width="1" height="1"/>
	<rect x="219.4" y="32" width="1" height="1"/>
	<rect x="194.1" y="32" width="1" height="1"/>
	<rect x="168.8" y="32" width="1" height="1"/>
	<rect x="143.5" y="32" width="1" height="1"/>
	<rect x="118.2" y="32.6" width="1" height="1"/>
	<rect x="92.9" y="32.7" width="1" height="1"/>
	<rect x="67.6" y="32.8" width="1" height="1"/>
	<rect x="42.3" y="32.9" width="1" height="1"/>
	<rect x="270" y="32" width="1" height="1"/>
</g>
<g>
	<rect x="17" y="52" width="1" height="1"/>
	<rect x="244.7" y="51" width="1" height="1"/>
	<rect x="219.4" y="51" width="1" height="1"/>
	<rect x="194.1" y="51" width="1" height="1"/>
	<rect x="168.8" y="51" width="1" height="1"/>
	<rect x="143.5" y="51" width="1" height="1"/>
	<rect x="118.2" y="51.6" width="1" height="1"/>
	<rect x="92.9" y="51.7" width="1" height="1"/>
	<rect x="67.6" y="51.8" width="1" height="1"/>
	<rect x="42.3" y="51.9" width="1" height="1"/>
	<rect x="270" y="51" width="1" height="1"/>
</g>
<g>
	<rect x="17" y="71" width="1" height="1"/>
	<rect x="244.7" y="70" width="1" height="1"/>
	<rect x="219.4" y="70" width="1" height="1"/>
	<rect x="194.1" y="70" width="1" height="1"/>
	<rect x="168.8" y="70" width="1" height="1"/>
	<rect x="143.5" y="70" width="1" height="1"/>
	<rect x="118.2" y="70.6" width="1" height="1"/>
	<rect x="92.9" y="70.7" width="1" height="1"/>
	<rect x="67.6" y="70.8" width="1" height="1"/>
	<rect x="42.3" y="70.9" width="1" height="1"/>
	<rect x="270" y="70" width="1" height="1"/>
</g>
<g>
	<rect x="17" y="90" width="1" height="1"/>
	<rect x="244.7" y="89" width="1" height="1"/>
	<rect x="219.4" y="89" width="1" height="1"/>
	<rect x="194.1" y="89" width="1" height="1"/>
	<rect x="168.8" y="89" width="1" height="1"/>
	<rect x="143.5" y="89" width="1" height="1"/>
	<rect x="118.2" y="89.6" width="1" height="1"/>
	<rect x="92.9" y="89.7" width="1" height="1"/>
	<rect x="67.6" y="89.8" width="1" height="1"/>
	<rect x="42.3" y="89.9" width="1" height="1"/>
	<rect x="270" y="89" width="1" height="1"/>
</g>
<g>
	<rect x="17" y="109" width="1" height="1"/>
	<rect x="244.7" y="108" width="1" height="1"/>
	<rect x="219.4" y="108" width="1" height="1"/>
	<rect x="194.1" y="108" width="1" height="1"/>
	<rect x="168.8" y="108" width="1" height="1"/>
	<rect x="143.5" y="108" width="1" height="1"/>
	<rect x="118.2" y="108.6" width="1" height="1"/>
	<rect x="92.9" y="108.7" width="1" height="1"/>
	<rect x="67.6" y="108.8" width="1" height="1"/>
	<rect x="42.3" y="108.9" width="1" height="1"/>
	<rect x="270" y="108" width="1" height="1"/>
</g>
<g>
	<rect x="17" y="128" width="1" height="1"/>
	<rect x="244.7" y="127" width="1" height="1"/>
	<rect x="219.4" y="127" width="1" height="1"/>
	<rect x="194.1" y="127" width="1" height="1"/>
	<rect x="168.8" y="127" width="1" height="1"/>
	<rect x="143.5" y="127" width="1" height="1"/>
	<rect x="118.2" y="127.6" width="1" height="1"/>
	<rect x="92.9" y="127.7" width="1" height="1"/>
	<rect x="67.6" y="127.8" width="1" height="1"/>
	<rect x="42.3" y="127.9" width="1" height="1"/>
	<rect x="270" y="127" width="1" height="1"/>
</g>
<g>
	<rect x="17" y="147" width="1" height="1"/>
	<rect x="244.7" y="146" width="1" height="1"/>
	<rect x="219.4" y="146" width="1" height="1"/>
	<rect x="194.1" y="146" width="1" height="1"/>
	<rect x="168.8" y="146" width="1" height="1"/>
	<rect x="143.5" y="146" width="1" height="1"/>
	<rect x="118.2" y="146.6" width="1" height="1"/>
	<rect x="92.9" y="146.7" width="1" height="1"/>
	<rect x="67.6" y="146.8" width="1" height="1"/>
	<rect x="42.3" y="146.9" width="1" height="1"/>
	<rect x="270" y="146" width="1" height="1"/>
</g>
<g>
	<rect x="17" y="166" width="1" height="1"/>
	<rect x="244.7" y="165" width="1" height="1"/>
	<rect x="219.4" y="165" width="1" height="1"/>
	<rect x="194.1" y="165" width="1" height="1"/>
	<rect x="168.8" y="165" width="1" height="1"/>
	<rect x="143.5" y="165" width="1" height="1"/>
	<rect x="118.2" y="165.6" width="1" height="1"/>
	<rect x="92.9" y="165.7" width="1" height="1"/>
	<rect x="67.6" y="165.8" width="1" height="1"/>
	<rect x="42.3" y="165.9" width="1" height="1"/>
	<rect x="270" y="165" width="1" height="1"/>
</g>
</svg>
