<?xml version="1.0" encoding="utf-8"?>
<!-- Generator: Adobe Illustrator 17.1.0, SVG Export Plug-In . SVG Version: 6.00 Build 0)  -->
<!DOCTYPE svg PUBLIC "-//W3C//DTD SVG 1.1//EN" "http://www.w3.org/Graphics/SVG/1.1/DTD/svg11.dtd">
<svg version="1.1" id="Layer_1" xmlns="http://www.w3.org/2000/svg" xmlns:xlink="http://www.w3.org/1999/xlink" x="0px" y="0px"
	 viewBox="0 0 11 25" enable-background="new 0 0 11 25" xml:space="preserve">
<rect width="1" height="1"/>
<rect x="2" width="1" height="1"/>
<rect x="4" width="1" height="1"/>
<rect x="6" width="1" height="1"/>
<rect x="8" width="1" height="1"/>
<rect x="10" width="1" height="1"/>
<rect y="2" width="1" height="1"/>
<rect x="2" y="2" width="1" height="1"/>
<rect x="4" y="2" width="1" height="1"/>
<rect x="6" y="2" width="1" height="1"/>
<rect x="8" y="2" width="1" height="1"/>
<rect x="10" y="2" width="1" height="1"/>
<rect y="4" width="1" height="1"/>
<rect x="2" y="4" width="1" height="1"/>
<rect x="4" y="4" width="1" height="1"/>
<rect x="6" y="4" width="1" height="1"/>
<rect x="8" y="4" width="1" height="1"/>
<rect x="10" y="4" width="1" height="1"/>
<rect y="6" width="1" height="1"/>
<rect x="2" y="6" width="1" height="1"/>
<rect x="4" y="6" width="1" height="1"/>
<rect x="6" y="6" width="1" height="1"/>
<rect x="8" y="6" width="1" height="1"/>
<rect x="10" y="6" width="1" height="1"/>
<rect y="8" width="1" height="1"/>
<rect x="2" y="8" width="1" height="1"/>
<rect x="4" y="8" width="1" height="1"/>
<rect x="6" y="8" width="1" height="1"/>
<rect x="8" y="8" width="1" height="1"/>
<rect x="10" y="8" width="1" height="1"/>
<rect y="10" width="1" height="1"/>
<rect x="2" y="10" width="1" height="1"/>
<rect x="4" y="10" width="1" height="1"/>
<rect x="6" y="10" width="1" height="1"/>
<rect x="8" y="10" width="1" height="1"/>
<rect x="10" y="10" width="1" height="1"/>
<rect y="12" width="1" height="1"/>
<rect x="2" y="12" width="1" height="1"/>
<rect x="4" y="12" width="1" height="1"/>
<rect x="6" y="12" width="1" height="1"/>
<rect x="8" y="12" width="1" height="1"/>
<rect x="10" y="12" width="1" height="1"/>
<rect y="14" width="1" height="1"/>
<rect x="2" y="14" width="1" height="1"/>
<rect x="4" y="14" width="1" height="1"/>
<rect x="6" y="14" width="1" height="1"/>
<rect x="8" y="14" width="1" height="1"/>
<rect x="10" y="14" width="1" height="1"/>
<rect y="16" width="1" height="1"/>
<rect x="2" y="16" width="1" height="1"/>
<rect x="4" y="16" width="1" height="1"/>
<rect x="6" y="16" width="1" height="1"/>
<rect x="8" y="16" width="1" height="1"/>
<rect x="10" y="16" width="1" height="1"/>
<rect y="18" width="1" height="1"/>
<rect x="2" y="18" width="1" height="1"/>
<rect x="4" y="18" width="1" height="1"/>
<rect x="6" y="18" width="1" height="1"/>
<rect x="8" y="18" width="1" height="1"/>
<rect x="10" y="18" width="1" height="1"/>
<rect y="20" width="1" height="1"/>
<rect x="2" y="20" width="1" height="1"/>
<rect x="4" y="20" width="1" height="1"/>
<rect x="6" y="20" width="1" height="1"/>
<rect x="8" y="20" width="1" height="1"/>
<rect x="10" y="20" width="1" height="1"/>
<rect y="22" width="1" height="1"/>
<rect x="2" y="22" width="1" height="1"/>
<rect x="4" y="22" width="1" height="1"/>
<rect x="6" y="22" width="1" height="1"/>
<rect x="8" y="22" width="1" height="1"/>
<rect x="10" y="22" width="1" height="1"/>
<rect y="24" width="1" height="1"/>
<rect x="2" y="24" width="1" height="1"/>
<rect x="4" y="24" width="1" height="1"/>
<rect x="6" y="24" width="1" height="1"/>
<rect x="8" y="24" width="1" height="1"/>
<rect x="10" y="24" width="1" height="1"/>
</svg>
